<mxfile host="Electron" agent="Mozilla/5.0 (Macintosh; Intel Mac OS X 10_15_7) AppleWebKit/537.36 (KHTML, like Gecko) draw.io/26.2.2 Chrome/134.0.6998.178 Electron/35.1.2 Safari/537.36" version="26.2.2">
  <diagram name="Page-1" id="jt8hLUJGPTORTQbVR6Ww">
    <mxGraphModel dx="1880" dy="690" grid="1" gridSize="10" guides="1" tooltips="1" connect="1" arrows="1" fold="1" page="1" pageScale="1" pageWidth="850" pageHeight="1100" background="#FBFBFB" math="0" shadow="1">
      <root>
        <mxCell id="0" />
        <mxCell id="1" parent="0" />
        <mxCell id="Bh1ixdrLbkdcDXFbTnPN-102" value="Seguradora" style="fillColor=none;strokeColor=#5A6C86;dashed=1;verticalAlign=top;fontStyle=0;fontColor=#090909;whiteSpace=wrap;html=1;labelBackgroundColor=none;" vertex="1" parent="1">
          <mxGeometry x="-380" y="550" width="690" height="340" as="geometry" />
        </mxCell>
        <mxCell id="Bh1ixdrLbkdcDXFbTnPN-67" value="&lt;font style=&quot;color: rgb(6, 6, 6);&quot;&gt;Corretora&lt;/font&gt;" style="fillColor=none;strokeColor=#5A6C86;dashed=1;verticalAlign=top;fontStyle=0;fontColor=#5A6C86;whiteSpace=wrap;html=1;" vertex="1" parent="1">
          <mxGeometry x="-380" y="260" width="690" height="260" as="geometry" />
        </mxCell>
        <mxCell id="Bh1ixdrLbkdcDXFbTnPN-3" value="" style="edgeStyle=orthogonalEdgeStyle;rounded=0;orthogonalLoop=1;jettySize=auto;html=1;strokeColor=#060606;" edge="1" parent="1" source="Bh1ixdrLbkdcDXFbTnPN-1" target="Bh1ixdrLbkdcDXFbTnPN-2">
          <mxGeometry relative="1" as="geometry" />
        </mxCell>
        <mxCell id="Bh1ixdrLbkdcDXFbTnPN-1" value="Cliente" style="shape=umlActor;verticalLabelPosition=bottom;verticalAlign=top;html=1;outlineConnect=0;fontColor=#040404;strokeColor=#060606;" vertex="1" parent="1">
          <mxGeometry x="-425" y="410" width="20" height="40" as="geometry" />
        </mxCell>
        <mxCell id="Bh1ixdrLbkdcDXFbTnPN-2" value="&lt;font style=&quot;color: rgb(9, 9, 9);&quot;&gt;Corretor&lt;/font&gt;" style="shape=umlActor;verticalLabelPosition=bottom;verticalAlign=top;html=1;outlineConnect=0;strokeColor=#060606;" vertex="1" parent="1">
          <mxGeometry x="-345" y="410" width="20" height="40" as="geometry" />
        </mxCell>
        <mxCell id="Bh1ixdrLbkdcDXFbTnPN-6" value="&lt;span style=&quot;color: rgb(6, 6, 6); font-size: 9px; text-wrap-mode: wrap;&quot;&gt;API Gateway&lt;/span&gt;" style="sketch=0;points=[[0,0,0],[0.25,0,0],[0.5,0,0],[0.75,0,0],[1,0,0],[0,1,0],[0.25,1,0],[0.5,1,0],[0.75,1,0],[1,1,0],[0,0.25,0],[0,0.5,0],[0,0.75,0],[1,0.25,0],[1,0.5,0],[1,0.75,0]];outlineConnect=0;fontColor=#232F3E;fillColor=#8C4FFF;strokeColor=#ffffff;dashed=0;verticalLabelPosition=bottom;verticalAlign=top;align=center;html=1;fontSize=12;fontStyle=0;aspect=fixed;shape=mxgraph.aws4.resourceIcon;resIcon=mxgraph.aws4.api_gateway;" vertex="1" parent="1">
          <mxGeometry x="-85" y="410" width="50" height="50" as="geometry" />
        </mxCell>
        <mxCell id="Bh1ixdrLbkdcDXFbTnPN-7" value="" style="sketch=0;points=[[0,0,0],[0.25,0,0],[0.5,0,0],[0.75,0,0],[1,0,0],[0,1,0],[0.25,1,0],[0.5,1,0],[0.75,1,0],[1,1,0],[0,0.25,0],[0,0.5,0],[0,0.75,0],[1,0.25,0],[1,0.5,0],[1,0.75,0]];outlineConnect=0;fontColor=#232F3E;fillColor=#8C4FFF;strokeColor=#ffffff;dashed=0;verticalLabelPosition=bottom;verticalAlign=top;align=center;html=1;fontSize=12;fontStyle=0;aspect=fixed;shape=mxgraph.aws4.resourceIcon;resIcon=mxgraph.aws4.cloudfront;" vertex="1" parent="1">
          <mxGeometry x="-264" y="320" width="50" height="50" as="geometry" />
        </mxCell>
        <mxCell id="Bh1ixdrLbkdcDXFbTnPN-8" value="" style="sketch=0;points=[[0,0,0],[0.25,0,0],[0.5,0,0],[0.75,0,0],[1,0,0],[0,1,0],[0.25,1,0],[0.5,1,0],[0.75,1,0],[1,1,0],[0,0.25,0],[0,0.5,0],[0,0.75,0],[1,0.25,0],[1,0.5,0],[1,0.75,0]];outlineConnect=0;fontColor=#232F3E;fillColor=#7AA116;strokeColor=#ffffff;dashed=0;verticalLabelPosition=bottom;verticalAlign=top;align=center;html=1;fontSize=12;fontStyle=0;aspect=fixed;shape=mxgraph.aws4.resourceIcon;resIcon=mxgraph.aws4.s3;" vertex="1" parent="1">
          <mxGeometry x="-264" y="410" width="50" height="50" as="geometry" />
        </mxCell>
        <mxCell id="Bh1ixdrLbkdcDXFbTnPN-9" value="&lt;font style=&quot;color: rgb(6, 6, 6);&quot;&gt;S3 - SPA Frontend&lt;/font&gt;" style="text;html=1;align=center;verticalAlign=middle;whiteSpace=wrap;rounded=0;fontColor=#060606;fontSize=9;" vertex="1" parent="1">
          <mxGeometry x="-270" y="454" width="60" height="30" as="geometry" />
        </mxCell>
        <mxCell id="Bh1ixdrLbkdcDXFbTnPN-11" value="&lt;font style=&quot;color: rgb(6, 6, 6);&quot;&gt;CloudFront&lt;/font&gt;" style="text;html=1;align=center;verticalAlign=middle;whiteSpace=wrap;rounded=0;fontColor=#060606;fontSize=9;" vertex="1" parent="1">
          <mxGeometry x="-270" y="300" width="60" height="30" as="geometry" />
        </mxCell>
        <mxCell id="Bh1ixdrLbkdcDXFbTnPN-13" value="" style="sketch=0;points=[[0,0,0],[0.25,0,0],[0.5,0,0],[0.75,0,0],[1,0,0],[0,1,0],[0.25,1,0],[0.5,1,0],[0.75,1,0],[1,1,0],[0,0.25,0],[0,0.5,0],[0,0.75,0],[1,0.25,0],[1,0.5,0],[1,0.75,0]];outlineConnect=0;fontColor=#232F3E;fillColor=#DD344C;strokeColor=#ffffff;dashed=0;verticalLabelPosition=bottom;verticalAlign=top;align=center;html=1;fontSize=12;fontStyle=0;aspect=fixed;shape=mxgraph.aws4.resourceIcon;resIcon=mxgraph.aws4.cognito;" vertex="1" parent="1">
          <mxGeometry x="-85" y="320" width="50" height="50" as="geometry" />
        </mxCell>
        <mxCell id="Bh1ixdrLbkdcDXFbTnPN-15" value="" style="edgeStyle=orthogonalEdgeStyle;html=1;endArrow=block;elbow=vertical;startArrow=none;endFill=1;strokeColor=#545B64;rounded=0;entryX=0;entryY=0.5;entryDx=0;entryDy=0;entryPerimeter=0;" edge="1" parent="1" source="Bh1ixdrLbkdcDXFbTnPN-8" target="Bh1ixdrLbkdcDXFbTnPN-6">
          <mxGeometry width="100" relative="1" as="geometry">
            <mxPoint x="-236" y="530" as="sourcePoint" />
            <mxPoint x="-136" y="530" as="targetPoint" />
          </mxGeometry>
        </mxCell>
        <mxCell id="Bh1ixdrLbkdcDXFbTnPN-72" value="&lt;span&gt;REST + JWT ( Authorization: Bearer )&lt;/span&gt;" style="edgeLabel;html=1;align=center;verticalAlign=middle;resizable=0;points=[];labelBackgroundColor=none;fontColor=#090909;fontSize=7;" vertex="1" connectable="0" parent="Bh1ixdrLbkdcDXFbTnPN-15">
          <mxGeometry x="-0.0058" relative="1" as="geometry">
            <mxPoint x="-5" y="-5" as="offset" />
          </mxGeometry>
        </mxCell>
        <mxCell id="Bh1ixdrLbkdcDXFbTnPN-16" value="" style="edgeStyle=orthogonalEdgeStyle;html=1;endArrow=block;elbow=vertical;startArrow=none;endFill=1;strokeColor=#545B64;rounded=0;" edge="1" parent="1" source="Bh1ixdrLbkdcDXFbTnPN-2" target="Bh1ixdrLbkdcDXFbTnPN-8">
          <mxGeometry width="100" relative="1" as="geometry">
            <mxPoint x="-286" y="430" as="sourcePoint" />
            <mxPoint x="-296" y="420" as="targetPoint" />
            <Array as="points">
              <mxPoint x="-286" y="430" />
              <mxPoint x="-286" y="430" />
            </Array>
          </mxGeometry>
        </mxCell>
        <mxCell id="Bh1ixdrLbkdcDXFbTnPN-17" value="" style="edgeStyle=orthogonalEdgeStyle;htmDepartman barl=1;endArrow=open;elbow=vertical;startArrow=open;startFill=0;endFill=0;strokeColor=#060606;rounded=0;flowAnimation=0;" edge="1" parent="1" target="Bh1ixdrLbkdcDXFbTnPN-13">
          <mxGeometry width="100" relative="1" as="geometry">
            <mxPoint x="-216" y="416" as="sourcePoint" />
            <mxPoint x="-125" y="350" as="targetPoint" />
            <Array as="points">
              <mxPoint x="-155" y="416" />
              <mxPoint x="-155" y="344" />
            </Array>
          </mxGeometry>
        </mxCell>
        <mxCell id="Bh1ixdrLbkdcDXFbTnPN-18" value="&lt;font style=&quot;color: rgb(6, 6, 6);&quot;&gt;HTTPS (browser)&lt;/font&gt;" style="text;html=1;align=center;verticalAlign=middle;rounded=0;textShadow=0;fontStyle=0;labelBorderColor=none;fontSize=7;" vertex="1" parent="1">
          <mxGeometry x="-310" y="420" width="30" height="10" as="geometry" />
        </mxCell>
        <mxCell id="Bh1ixdrLbkdcDXFbTnPN-21" value="&lt;font style=&quot;color: rgb(6, 6, 6);&quot;&gt;Authenticate&lt;/font&gt;" style="text;html=1;align=center;verticalAlign=middle;rounded=0;textShadow=0;fontStyle=0;labelBorderColor=none;fontSize=9;" vertex="1" parent="1">
          <mxGeometry x="-155" y="330" width="30" height="10" as="geometry" />
        </mxCell>
        <mxCell id="Bh1ixdrLbkdcDXFbTnPN-23" value="&lt;font style=&quot;color: rgb(6, 6, 6);&quot;&gt;JWT&lt;/font&gt;" style="text;html=1;align=center;verticalAlign=middle;rounded=0;textShadow=0;fontStyle=0;labelBorderColor=none;fontSize=9;" vertex="1" parent="1">
          <mxGeometry x="-155" y="350" width="30" height="10" as="geometry" />
        </mxCell>
        <mxCell id="Bh1ixdrLbkdcDXFbTnPN-29" value="" style="edgeStyle=orthogonalEdgeStyle;html=1;endArrow=block;elbow=vertical;startArrow=none;endFill=1;strokeColor=#545B64;rounded=0;entryX=0.5;entryY=1;entryDx=0;entryDy=0;entryPerimeter=0;exitX=0.5;exitY=0;exitDx=0;exitDy=0;exitPerimeter=0;" edge="1" parent="1" source="Bh1ixdrLbkdcDXFbTnPN-8" target="Bh1ixdrLbkdcDXFbTnPN-7">
          <mxGeometry width="100" relative="1" as="geometry">
            <mxPoint x="-395" y="360" as="sourcePoint" />
            <mxPoint x="-295" y="360" as="targetPoint" />
          </mxGeometry>
        </mxCell>
        <mxCell id="Bh1ixdrLbkdcDXFbTnPN-31" value="" style="edgeStyle=orthogonalEdgeStyle;htmDepartman barl=1;endArrow=open;elbow=vertical;startArrow=open;startFill=0;endFill=0;strokeColor=#545B64;rounded=0;entryX=0.5;entryY=1;entryDx=0;entryDy=0;entryPerimeter=0;exitX=0.5;exitY=0;exitDx=0;exitDy=0;exitPerimeter=0;" edge="1" parent="1" source="Bh1ixdrLbkdcDXFbTnPN-6" target="Bh1ixdrLbkdcDXFbTnPN-13">
          <mxGeometry width="100" relative="1" as="geometry">
            <mxPoint x="-111" y="390" as="sourcePoint" />
            <mxPoint x="-11" y="390" as="targetPoint" />
          </mxGeometry>
        </mxCell>
        <mxCell id="Bh1ixdrLbkdcDXFbTnPN-32" value="&lt;font style=&quot;color: rgb(6, 6, 6);&quot;&gt;Cognito Authorizer&lt;/font&gt;" style="text;html=1;align=center;verticalAlign=middle;rounded=0;textShadow=0;fontStyle=0;labelBorderColor=none;fontSize=10;" vertex="1" parent="1">
          <mxGeometry x="-116" y="385" width="30" height="10" as="geometry" />
        </mxCell>
        <mxCell id="Bh1ixdrLbkdcDXFbTnPN-33" value="&lt;font style=&quot;color: rgb(6, 6, 6);&quot;&gt;Cognito&lt;/font&gt;" style="text;html=1;align=center;verticalAlign=middle;whiteSpace=wrap;rounded=0;fontColor=#060606;fontSize=9;" vertex="1" parent="1">
          <mxGeometry x="-89" y="298" width="56" height="22" as="geometry" />
        </mxCell>
        <mxCell id="Bh1ixdrLbkdcDXFbTnPN-37" value="" style="sketch=0;points=[[0,0,0],[0.25,0,0],[0.5,0,0],[0.75,0,0],[1,0,0],[0,1,0],[0.25,1,0],[0.5,1,0],[0.75,1,0],[1,1,0],[0,0.25,0],[0,0.5,0],[0,0.75,0],[1,0.25,0],[1,0.5,0],[1,0.75,0]];outlineConnect=0;fontColor=#232F3E;fillColor=#ED7100;strokeColor=#ffffff;dashed=0;verticalLabelPosition=bottom;verticalAlign=top;align=center;html=1;fontSize=12;fontStyle=0;aspect=fixed;shape=mxgraph.aws4.resourceIcon;resIcon=mxgraph.aws4.fargate;" vertex="1" parent="1">
          <mxGeometry x="45" y="350" width="50" height="50" as="geometry" />
        </mxCell>
        <mxCell id="Bh1ixdrLbkdcDXFbTnPN-38" value="&lt;font style=&quot;&quot;&gt;CotacaoService&lt;/font&gt;" style="text;html=1;align=center;verticalAlign=middle;whiteSpace=wrap;rounded=0;fontColor=#006666;fontSize=11;" vertex="1" parent="1">
          <mxGeometry x="65" y="329" width="60" height="30" as="geometry" />
        </mxCell>
        <mxCell id="Bh1ixdrLbkdcDXFbTnPN-39" value="" style="sketch=0;points=[[0,0,0],[0.25,0,0],[0.5,0,0],[0.75,0,0],[1,0,0],[0,1,0],[0.25,1,0],[0.5,1,0],[0.75,1,0],[1,1,0],[0,0.25,0],[0,0.5,0],[0,0.75,0],[1,0.25,0],[1,0.5,0],[1,0.75,0]];outlineConnect=0;fontColor=#232F3E;fillColor=#ED7100;strokeColor=#ffffff;dashed=0;verticalLabelPosition=bottom;verticalAlign=top;align=center;html=1;fontSize=12;fontStyle=0;aspect=fixed;shape=mxgraph.aws4.resourceIcon;resIcon=mxgraph.aws4.fargate;" vertex="1" parent="1">
          <mxGeometry x="45" y="431.5" width="50" height="50" as="geometry" />
        </mxCell>
        <mxCell id="Bh1ixdrLbkdcDXFbTnPN-40" value="&lt;font style=&quot;font-size: 11px;&quot;&gt;ContratacaoService&lt;/font&gt;" style="text;html=1;align=center;verticalAlign=middle;whiteSpace=wrap;rounded=0;fontColor=#3333FF;fontSize=9;" vertex="1" parent="1">
          <mxGeometry x="75" y="410" width="60" height="30" as="geometry" />
        </mxCell>
        <mxCell id="Bh1ixdrLbkdcDXFbTnPN-41" value="Amazon RDS - Cotação" style="sketch=0;points=[[0,0,0],[0.25,0,0],[0.5,0,0],[0.75,0,0],[1,0,0],[0,1,0],[0.25,1,0],[0.5,1,0],[0.75,1,0],[1,1,0],[0,0.25,0],[0,0.5,0],[0,0.75,0],[1,0.25,0],[1,0.5,0],[1,0.75,0]];outlineConnect=0;fontColor=#232F3E;fillColor=#C925D1;strokeColor=#ffffff;dashed=0;verticalLabelPosition=bottom;verticalAlign=top;align=center;html=1;fontSize=9;fontStyle=0;aspect=fixed;shape=mxgraph.aws4.resourceIcon;resIcon=mxgraph.aws4.rds;" vertex="1" parent="1">
          <mxGeometry x="169" y="350" width="50" height="50" as="geometry" />
        </mxCell>
        <mxCell id="Bh1ixdrLbkdcDXFbTnPN-42" value="Amazon RDS - Contratos" style="sketch=0;points=[[0,0,0],[0.25,0,0],[0.5,0,0],[0.75,0,0],[1,0,0],[0,1,0],[0.25,1,0],[0.5,1,0],[0.75,1,0],[1,1,0],[0,0.25,0],[0,0.5,0],[0,0.75,0],[1,0.25,0],[1,0.5,0],[1,0.75,0]];outlineConnect=0;fontColor=#232F3E;fillColor=#C925D1;strokeColor=#ffffff;dashed=0;verticalLabelPosition=bottom;verticalAlign=top;align=center;html=1;fontSize=9;fontStyle=0;aspect=fixed;shape=mxgraph.aws4.resourceIcon;resIcon=mxgraph.aws4.rds;" vertex="1" parent="1">
          <mxGeometry x="169" y="431.5" width="50" height="50" as="geometry" />
        </mxCell>
        <mxCell id="Bh1ixdrLbkdcDXFbTnPN-52" value="" style="sketch=0;points=[[0,0,0],[0.25,0,0],[0.5,0,0],[0.75,0,0],[1,0,0],[0,1,0],[0.25,1,0],[0.5,1,0],[0.75,1,0],[1,1,0],[0,0.25,0],[0,0.5,0],[0,0.75,0],[1,0.25,0],[1,0.5,0],[1,0.75,0]];outlineConnect=0;fontColor=#232F3E;fillColor=#E7157B;strokeColor=#ffffff;dashed=0;verticalLabelPosition=bottom;verticalAlign=top;align=center;html=1;fontSize=12;fontStyle=0;aspect=fixed;shape=mxgraph.aws4.resourceIcon;resIcon=mxgraph.aws4.sqs;" vertex="1" parent="1">
          <mxGeometry x="-350" y="591" width="50" height="50" as="geometry" />
        </mxCell>
        <mxCell id="Bh1ixdrLbkdcDXFbTnPN-56" value="" style="edgeStyle=orthogonalEdgeStyle;html=1;endArrow=block;elbow=vertical;startArrow=block;startFill=1;endFill=1;strokeColor=#545B64;rounded=0;exitX=1;exitY=0.75;exitDx=0;exitDy=0;exitPerimeter=0;entryX=0;entryY=0.5;entryDx=0;entryDy=0;entryPerimeter=0;labelBackgroundColor=default;" edge="1" parent="1" source="Bh1ixdrLbkdcDXFbTnPN-6" target="Bh1ixdrLbkdcDXFbTnPN-39">
          <mxGeometry width="100" relative="1" as="geometry">
            <mxPoint x="-35" y="444.63" as="sourcePoint" />
            <mxPoint x="65" y="444.63" as="targetPoint" />
          </mxGeometry>
        </mxCell>
        <mxCell id="Bh1ixdrLbkdcDXFbTnPN-57" value="" style="edgeStyle=orthogonalEdgeStyle;html=1;endArrow=block;elbow=vertical;startArrow=block;startFill=1;endFill=1;strokeColor=#545B64;rounded=0;entryX=0;entryY=0.5;entryDx=0;entryDy=0;entryPerimeter=0;exitX=1;exitY=0.25;exitDx=0;exitDy=0;exitPerimeter=0;" edge="1" parent="1" source="Bh1ixdrLbkdcDXFbTnPN-6" target="Bh1ixdrLbkdcDXFbTnPN-37">
          <mxGeometry width="100" relative="1" as="geometry">
            <mxPoint x="-60" y="380" as="sourcePoint" />
            <mxPoint x="40" y="380" as="targetPoint" />
          </mxGeometry>
        </mxCell>
        <mxCell id="Bh1ixdrLbkdcDXFbTnPN-74" value="Rest" style="edgeLabel;html=1;align=center;verticalAlign=middle;resizable=0;points=[];labelBackgroundColor=none;fontColor=#090909;fontSize=9;" vertex="1" connectable="0" parent="Bh1ixdrLbkdcDXFbTnPN-57">
          <mxGeometry x="0.1059" y="-1" relative="1" as="geometry">
            <mxPoint x="14" y="-22" as="offset" />
          </mxGeometry>
        </mxCell>
        <mxCell id="Bh1ixdrLbkdcDXFbTnPN-63" value="" style="edgeStyle=orthogonalEdgeStyle;html=1;endArrow=openThin;elbow=vertical;startArrow=openThin;startFill=0;endFill=0;strokeColor=#545B64;rounded=0;" edge="1" parent="1" source="Bh1ixdrLbkdcDXFbTnPN-37" target="Bh1ixdrLbkdcDXFbTnPN-41">
          <mxGeometry width="100" relative="1" as="geometry">
            <mxPoint x="110" y="380" as="sourcePoint" />
            <mxPoint x="210" y="380" as="targetPoint" />
          </mxGeometry>
        </mxCell>
        <mxCell id="Bh1ixdrLbkdcDXFbTnPN-69" value="JDBC + SSL" style="edgeLabel;html=1;align=center;verticalAlign=middle;resizable=0;points=[];fontSize=9;labelBackgroundColor=none;fontColor=#060606;" vertex="1" connectable="0" parent="Bh1ixdrLbkdcDXFbTnPN-63">
          <mxGeometry x="-0.0338" y="2" relative="1" as="geometry">
            <mxPoint y="-3" as="offset" />
          </mxGeometry>
        </mxCell>
        <mxCell id="Bh1ixdrLbkdcDXFbTnPN-64" value="" style="edgeStyle=orthogonalEdgeStyle;html=1;endArrow=openThin;elbow=vertical;startArrow=openThin;startFill=0;endFill=0;strokeColor=#545B64;rounded=0;" edge="1" parent="1" source="Bh1ixdrLbkdcDXFbTnPN-39" target="Bh1ixdrLbkdcDXFbTnPN-42">
          <mxGeometry width="100" relative="1" as="geometry">
            <mxPoint x="105" y="385" as="sourcePoint" />
            <mxPoint x="180" y="457" as="targetPoint" />
          </mxGeometry>
        </mxCell>
        <mxCell id="Bh1ixdrLbkdcDXFbTnPN-73" value="&lt;span style=&quot;font-size: 9px;&quot;&gt;JDBC + SSL&lt;/span&gt;" style="edgeLabel;html=1;align=center;verticalAlign=middle;resizable=0;points=[];labelBackgroundColor=none;fontColor=#090909;" vertex="1" connectable="0" parent="Bh1ixdrLbkdcDXFbTnPN-64">
          <mxGeometry x="-0.0169" y="-1" relative="1" as="geometry">
            <mxPoint y="-7" as="offset" />
          </mxGeometry>
        </mxCell>
        <mxCell id="Bh1ixdrLbkdcDXFbTnPN-65" value="" style="edgeStyle=orthogonalEdgeStyle;html=1;endArrow=open;elbow=vertical;startArrow=none;endFill=0;strokeColor=#545B64;rounded=0;entryX=0.5;entryY=0;entryDx=0;entryDy=0;entryPerimeter=0;exitX=0.5;exitY=1;exitDx=0;exitDy=0;exitPerimeter=0;" edge="1" parent="1" source="Bh1ixdrLbkdcDXFbTnPN-39" target="Bh1ixdrLbkdcDXFbTnPN-52">
          <mxGeometry width="100" relative="1" as="geometry">
            <mxPoint x="-20" y="530" as="sourcePoint" />
            <mxPoint x="80" y="530" as="targetPoint" />
          </mxGeometry>
        </mxCell>
        <mxCell id="Bh1ixdrLbkdcDXFbTnPN-66" value="SendMessage (evento NovaVendaCriada)" style="edgeLabel;html=1;align=center;verticalAlign=middle;resizable=0;points=[];labelBackgroundColor=none;fontSize=9;fontColor=#090909;" vertex="1" connectable="0" parent="Bh1ixdrLbkdcDXFbTnPN-65">
          <mxGeometry x="0.2344" y="1" relative="1" as="geometry">
            <mxPoint x="-68" y="-7" as="offset" />
          </mxGeometry>
        </mxCell>
        <mxCell id="Bh1ixdrLbkdcDXFbTnPN-77" value="Rest" style="edgeLabel;html=1;align=center;verticalAlign=middle;resizable=0;points=[];labelBackgroundColor=none;fontColor=#090909;fontSize=9;" vertex="1" connectable="0" parent="1">
          <mxGeometry x="20" y="460.0049999999999" as="geometry" />
        </mxCell>
        <mxCell id="Bh1ixdrLbkdcDXFbTnPN-78" value="SQS - DLQ" style="sketch=0;points=[[0,0,0],[0.25,0,0],[0.5,0,0],[0.75,0,0],[1,0,0],[0,1,0],[0.25,1,0],[0.5,1,0],[0.75,1,0],[1,1,0],[0,0.25,0],[0,0.5,0],[0,0.75,0],[1,0.25,0],[1,0.5,0],[1,0.75,0]];outlineConnect=0;fontColor=#232F3E;fillColor=#E7157B;strokeColor=#ffffff;dashed=0;verticalLabelPosition=bottom;verticalAlign=top;align=center;html=1;fontSize=9;fontStyle=0;aspect=fixed;shape=mxgraph.aws4.resourceIcon;resIcon=mxgraph.aws4.sqs;" vertex="1" parent="1">
          <mxGeometry x="-230" y="591" width="50" height="50" as="geometry" />
        </mxCell>
        <mxCell id="Bh1ixdrLbkdcDXFbTnPN-79" value="ProcessarVendaLambda" style="sketch=0;points=[[0,0,0],[0.25,0,0],[0.5,0,0],[0.75,0,0],[1,0,0],[0,1,0],[0.25,1,0],[0.5,1,0],[0.75,1,0],[1,1,0],[0,0.25,0],[0,0.5,0],[0,0.75,0],[1,0.25,0],[1,0.5,0],[1,0.75,0]];outlineConnect=0;fontColor=#232F3E;fillColor=#ED7100;strokeColor=#ffffff;dashed=0;verticalLabelPosition=bottom;verticalAlign=top;align=center;html=1;fontSize=9;fontStyle=0;aspect=fixed;shape=mxgraph.aws4.resourceIcon;resIcon=mxgraph.aws4.lambda;" vertex="1" parent="1">
          <mxGeometry x="-350" y="681" width="50" height="50" as="geometry" />
        </mxCell>
        <mxCell id="Bh1ixdrLbkdcDXFbTnPN-80" value="EnviarParaLegadoLambda" style="sketch=0;points=[[0,0,0],[0.25,0,0],[0.5,0,0],[0.75,0,0],[1,0,0],[0,1,0],[0.25,1,0],[0.5,1,0],[0.75,1,0],[1,1,0],[0,0.25,0],[0,0.5,0],[0,0.75,0],[1,0.25,0],[1,0.5,0],[1,0.75,0]];outlineConnect=0;fontColor=#232F3E;fillColor=#ED7100;strokeColor=#ffffff;dashed=0;verticalLabelPosition=bottom;verticalAlign=top;align=center;html=1;fontSize=9;fontStyle=0;aspect=fixed;shape=mxgraph.aws4.resourceIcon;resIcon=mxgraph.aws4.lambda;" vertex="1" parent="1">
          <mxGeometry x="-155" y="681" width="50" height="50" as="geometry" />
        </mxCell>
        <mxCell id="Bh1ixdrLbkdcDXFbTnPN-81" value="NotificacaoService" style="sketch=0;points=[[0,0,0],[0.25,0,0],[0.5,0,0],[0.75,0,0],[1,0,0],[0,1,0],[0.25,1,0],[0.5,1,0],[0.75,1,0],[1,1,0],[0,0.25,0],[0,0.5,0],[0,0.75,0],[1,0.25,0],[1,0.5,0],[1,0.75,0]];outlineConnect=0;fontColor=#FF0000;fillColor=#ED7100;strokeColor=#ffffff;dashed=0;verticalLabelPosition=bottom;verticalAlign=top;align=center;html=1;fontSize=9;fontStyle=0;aspect=fixed;shape=mxgraph.aws4.resourceIcon;resIcon=mxgraph.aws4.fargate;" vertex="1" parent="1">
          <mxGeometry x="150" y="681" width="50" height="50" as="geometry" />
        </mxCell>
        <mxCell id="Bh1ixdrLbkdcDXFbTnPN-95" value="" style="edgeStyle=orthogonalEdgeStyle;rounded=0;orthogonalLoop=1;jettySize=auto;html=1;" edge="1" parent="1" source="Bh1ixdrLbkdcDXFbTnPN-82" target="Bh1ixdrLbkdcDXFbTnPN-83">
          <mxGeometry relative="1" as="geometry" />
        </mxCell>
        <mxCell id="Bh1ixdrLbkdcDXFbTnPN-82" value="Amazon RDS - Legado" style="sketch=0;points=[[0,0,0],[0.25,0,0],[0.5,0,0],[0.75,0,0],[1,0,0],[0,1,0],[0.25,1,0],[0.5,1,0],[0.75,1,0],[1,1,0],[0,0.25,0],[0,0.5,0],[0,0.75,0],[1,0.25,0],[1,0.5,0],[1,0.75,0]];outlineConnect=0;fontColor=#232F3E;fillColor=#C925D1;strokeColor=#ffffff;dashed=0;verticalLabelPosition=bottom;verticalAlign=top;align=center;html=1;fontSize=9;fontStyle=0;aspect=fixed;shape=mxgraph.aws4.resourceIcon;resIcon=mxgraph.aws4.rds;" vertex="1" parent="1">
          <mxGeometry x="-86" y="591" width="50" height="50" as="geometry" />
        </mxCell>
        <mxCell id="Bh1ixdrLbkdcDXFbTnPN-83" value="&lt;code data-end=&quot;1753&quot; data-start=&quot;1725&quot;&gt;ConsultarStatusVendaLambda&lt;/code&gt;" style="sketch=0;points=[[0,0,0],[0.25,0,0],[0.5,0,0],[0.75,0,0],[1,0,0],[0,1,0],[0.25,1,0],[0.5,1,0],[0.75,1,0],[1,1,0],[0,0.25,0],[0,0.5,0],[0,0.75,0],[1,0.25,0],[1,0.5,0],[1,0.75,0]];outlineConnect=0;fontColor=#232F3E;fillColor=#ED7100;strokeColor=#ffffff;dashed=0;verticalLabelPosition=bottom;verticalAlign=top;align=center;html=1;fontSize=9;fontStyle=0;aspect=fixed;shape=mxgraph.aws4.resourceIcon;resIcon=mxgraph.aws4.lambda;" vertex="1" parent="1">
          <mxGeometry x="-20" y="681" width="50" height="50" as="geometry" />
        </mxCell>
        <mxCell id="Bh1ixdrLbkdcDXFbTnPN-84" value="Sistema Legado" style="sketch=0;outlineConnect=0;fontColor=#232F3E;gradientColor=none;fillColor=#232F3D;strokeColor=none;dashed=0;verticalLabelPosition=bottom;verticalAlign=top;align=center;html=1;fontSize=9;fontStyle=0;aspect=fixed;pointerEvents=1;shape=mxgraph.aws4.traditional_server;" vertex="1" parent="1">
          <mxGeometry x="135" y="577" width="45" height="78" as="geometry" />
        </mxCell>
        <mxCell id="Bh1ixdrLbkdcDXFbTnPN-86" value="Amazon SES" style="sketch=0;points=[[0,0,0],[0.25,0,0],[0.5,0,0],[0.75,0,0],[1,0,0],[0,1,0],[0.25,1,0],[0.5,1,0],[0.75,1,0],[1,1,0],[0,0.25,0],[0,0.5,0],[0,0.75,0],[1,0.25,0],[1,0.5,0],[1,0.75,0]];outlineConnect=0;fontColor=#232F3E;fillColor=#E7157B;strokeColor=#ffffff;dashed=0;verticalLabelPosition=bottom;verticalAlign=top;align=center;html=1;fontSize=9;fontStyle=0;aspect=fixed;shape=mxgraph.aws4.resourceIcon;resIcon=mxgraph.aws4.sns;" vertex="1" parent="1">
          <mxGeometry x="240" y="641" width="50" height="50" as="geometry" />
        </mxCell>
        <mxCell id="Bh1ixdrLbkdcDXFbTnPN-87" value="" style="edgeStyle=orthogonalEdgeStyle;html=1;endArrow=openThin;elbow=vertical;startArrow=none;endFill=0;strokeColor=#545B64;rounded=0;" edge="1" parent="1" source="Bh1ixdrLbkdcDXFbTnPN-52" target="Bh1ixdrLbkdcDXFbTnPN-79">
          <mxGeometry width="100" relative="1" as="geometry">
            <mxPoint x="-290" y="661" as="sourcePoint" />
            <mxPoint x="-390" y="661" as="targetPoint" />
            <Array as="points">
              <mxPoint x="-340" y="630" />
              <mxPoint x="-340" y="630" />
            </Array>
          </mxGeometry>
        </mxCell>
        <mxCell id="Bh1ixdrLbkdcDXFbTnPN-88" value="" style="edgeStyle=orthogonalEdgeStyle;html=1;endArrow=open;elbow=vertical;startArrow=none;endFill=0;strokeColor=#545B64;rounded=0;" edge="1" parent="1" source="Bh1ixdrLbkdcDXFbTnPN-79" target="Bh1ixdrLbkdcDXFbTnPN-78">
          <mxGeometry width="100" relative="1" as="geometry">
            <mxPoint x="-280" y="691" as="sourcePoint" />
            <mxPoint x="-215" y="641" as="targetPoint" />
            <Array as="points">
              <mxPoint x="-170" y="691" />
            </Array>
          </mxGeometry>
        </mxCell>
        <mxCell id="Bh1ixdrLbkdcDXFbTnPN-89" value="on failure ( x retries) - DLQ" style="edgeLabel;html=1;align=center;verticalAlign=middle;resizable=0;points=[];labelBackgroundColor=none;fontColor=#090909;fontSize=9;" vertex="1" connectable="0" parent="Bh1ixdrLbkdcDXFbTnPN-88">
          <mxGeometry x="-0.4262" relative="1" as="geometry">
            <mxPoint x="8" y="-11" as="offset" />
          </mxGeometry>
        </mxCell>
        <mxCell id="Bh1ixdrLbkdcDXFbTnPN-90" value="" style="edgeStyle=orthogonalEdgeStyle;html=1;endArrow=block;elbow=vertical;startArrow=none;endFill=1;strokeColor=#545B64;rounded=0;" edge="1" parent="1" source="Bh1ixdrLbkdcDXFbTnPN-79" target="Bh1ixdrLbkdcDXFbTnPN-80">
          <mxGeometry width="100" relative="1" as="geometry">
            <mxPoint x="-290" y="705.69" as="sourcePoint" />
            <mxPoint x="-190" y="705.69" as="targetPoint" />
          </mxGeometry>
        </mxCell>
        <mxCell id="Bh1ixdrLbkdcDXFbTnPN-108" value="Invoke (payload)" style="edgeLabel;html=1;align=center;verticalAlign=middle;resizable=0;points=[];fontSize=9;labelBackgroundColor=none;fontColor=#090909;" vertex="1" connectable="0" parent="Bh1ixdrLbkdcDXFbTnPN-90">
          <mxGeometry x="-0.0371" y="1" relative="1" as="geometry">
            <mxPoint x="-9" y="15" as="offset" />
          </mxGeometry>
        </mxCell>
        <mxCell id="Bh1ixdrLbkdcDXFbTnPN-91" value="" style="edgeStyle=orthogonalEdgeStyle;html=1;endArrow=block;elbow=vertical;startArrow=none;endFill=1;strokeColor=#545B64;rounded=0;exitX=0.5;exitY=0;exitDx=0;exitDy=0;exitPerimeter=0;entryX=0;entryY=0.5;entryDx=0;entryDy=0;entryPerimeter=0;" edge="1" parent="1" source="Bh1ixdrLbkdcDXFbTnPN-80" target="Bh1ixdrLbkdcDXFbTnPN-82">
          <mxGeometry width="100" relative="1" as="geometry">
            <mxPoint x="-140" y="701" as="sourcePoint" />
            <mxPoint x="-110" y="631" as="targetPoint" />
          </mxGeometry>
        </mxCell>
        <mxCell id="Bh1ixdrLbkdcDXFbTnPN-110" value="Insert / Update" style="edgeLabel;html=1;align=center;verticalAlign=middle;resizable=0;points=[];fontSize=9;labelBackgroundColor=none;fontColor=#090909;" vertex="1" connectable="0" parent="Bh1ixdrLbkdcDXFbTnPN-91">
          <mxGeometry x="0.1686" y="-1" relative="1" as="geometry">
            <mxPoint x="4" y="-7" as="offset" />
          </mxGeometry>
        </mxCell>
        <mxCell id="Bh1ixdrLbkdcDXFbTnPN-94" value="" style="edgeStyle=orthogonalEdgeStyle;html=1;endArrow=open;elbow=vertical;startArrow=none;endFill=0;strokeColor=#545B64;rounded=0;entryX=0.5;entryY=0;entryDx=0;entryDy=0;entryPerimeter=0;exitX=1;exitY=0.75;exitDx=0;exitDy=0;exitPerimeter=0;" edge="1" parent="1" source="Bh1ixdrLbkdcDXFbTnPN-82" target="Bh1ixdrLbkdcDXFbTnPN-83">
          <mxGeometry width="100" relative="1" as="geometry">
            <mxPoint x="-55" y="671" as="sourcePoint" />
            <mxPoint x="45" y="671" as="targetPoint" />
          </mxGeometry>
        </mxCell>
        <mxCell id="Bh1ixdrLbkdcDXFbTnPN-113" value="Consulta periódica (cron) 🔄" style="edgeLabel;html=1;align=center;verticalAlign=middle;resizable=0;points=[];fontSize=9;labelBackgroundColor=none;fontColor=#090909;" vertex="1" connectable="0" parent="Bh1ixdrLbkdcDXFbTnPN-94">
          <mxGeometry x="0.2259" y="-1" relative="1" as="geometry">
            <mxPoint x="46" y="10" as="offset" />
          </mxGeometry>
        </mxCell>
        <mxCell id="Bh1ixdrLbkdcDXFbTnPN-96" value="" style="edgeStyle=orthogonalEdgeStyle;html=1;endArrow=block;elbow=vertical;startArrow=none;endFill=1;strokeColor=#545B64;rounded=0;" edge="1" parent="1" source="Bh1ixdrLbkdcDXFbTnPN-83" target="Bh1ixdrLbkdcDXFbTnPN-81">
          <mxGeometry width="100" relative="1" as="geometry">
            <mxPoint x="30" y="705.69" as="sourcePoint" />
            <mxPoint x="130" y="705.69" as="targetPoint" />
          </mxGeometry>
        </mxCell>
        <mxCell id="Bh1ixdrLbkdcDXFbTnPN-114" value="POST /notificarVenda (status)" style="edgeLabel;html=1;align=center;verticalAlign=middle;resizable=0;points=[];fontSize=9;labelBackgroundColor=none;fontColor=#090909;" vertex="1" connectable="0" parent="Bh1ixdrLbkdcDXFbTnPN-96">
          <mxGeometry x="-0.1821" y="1" relative="1" as="geometry">
            <mxPoint x="7" y="15" as="offset" />
          </mxGeometry>
        </mxCell>
        <mxCell id="Bh1ixdrLbkdcDXFbTnPN-97" value="" style="edgeStyle=orthogonalEdgeStyle;html=1;endArrow=block;elbow=vertical;startArrow=none;endFill=1;strokeColor=#545B64;rounded=0;" edge="1" parent="1" source="Bh1ixdrLbkdcDXFbTnPN-81" target="Bh1ixdrLbkdcDXFbTnPN-86">
          <mxGeometry width="100" relative="1" as="geometry">
            <mxPoint x="125" y="655" as="sourcePoint" />
            <mxPoint x="225" y="655" as="targetPoint" />
          </mxGeometry>
        </mxCell>
        <mxCell id="Bh1ixdrLbkdcDXFbTnPN-115" value="SendEmail (via Amazon SES)" style="edgeLabel;html=1;align=center;verticalAlign=middle;resizable=0;points=[];fontSize=8;labelBackgroundColor=none;fontColor=#090909;rotation=-60;" vertex="1" connectable="0" parent="Bh1ixdrLbkdcDXFbTnPN-97">
          <mxGeometry x="0.5266" y="-1" relative="1" as="geometry">
            <mxPoint x="19" y="-51" as="offset" />
          </mxGeometry>
        </mxCell>
        <mxCell id="Bh1ixdrLbkdcDXFbTnPN-99" value="" style="edgeStyle=orthogonalEdgeStyle;html=1;endArrow=none;elbow=vertical;startArrow=block;startFill=1;strokeColor=#545B64;rounded=0;entryX=1;entryY=0.5;entryDx=0;entryDy=0;entryPerimeter=0;" edge="1" parent="1" target="Bh1ixdrLbkdcDXFbTnPN-86">
          <mxGeometry width="100" relative="1" as="geometry">
            <mxPoint x="-415" y="491.0000000000001" as="sourcePoint" />
            <mxPoint x="319" y="751" as="targetPoint" />
            <Array as="points">
              <mxPoint x="-415" y="780" />
              <mxPoint x="300" y="780" />
              <mxPoint x="300" y="666" />
            </Array>
          </mxGeometry>
        </mxCell>
        <mxCell id="Bh1ixdrLbkdcDXFbTnPN-116" value="E-mail enviado com status da venda" style="edgeLabel;html=1;align=center;verticalAlign=middle;resizable=0;points=[];labelBackgroundColor=none;fontColor=#090909;fontSize=9;" vertex="1" connectable="0" parent="Bh1ixdrLbkdcDXFbTnPN-99">
          <mxGeometry x="0.1605" y="3" relative="1" as="geometry">
            <mxPoint x="125" y="3" as="offset" />
          </mxGeometry>
        </mxCell>
        <mxCell id="Bh1ixdrLbkdcDXFbTnPN-100" value="" style="edgeStyle=orthogonalEdgeStyle;html=1;endArrow=block;elbow=vertical;startArrow=none;endFill=1;strokeColor=#545B64;rounded=0;" edge="1" parent="1" source="Bh1ixdrLbkdcDXFbTnPN-82" target="Bh1ixdrLbkdcDXFbTnPN-84">
          <mxGeometry width="100" relative="1" as="geometry">
            <mxPoint x="-29.75" y="616" as="sourcePoint" />
            <mxPoint x="39.25" y="551" as="targetPoint" />
            <Array as="points">
              <mxPoint x="22" y="601" />
              <mxPoint x="22" y="601" />
            </Array>
          </mxGeometry>
        </mxCell>
        <mxCell id="Bh1ixdrLbkdcDXFbTnPN-111" value="Processamento legado via JOB" style="edgeLabel;html=1;align=center;verticalAlign=middle;resizable=0;points=[];fontSize=9;labelBackgroundColor=none;fontColor=#090909;" vertex="1" connectable="0" parent="Bh1ixdrLbkdcDXFbTnPN-100">
          <mxGeometry x="-0.2856" y="2" relative="1" as="geometry">
            <mxPoint x="24" y="-8" as="offset" />
          </mxGeometry>
        </mxCell>
        <mxCell id="Bh1ixdrLbkdcDXFbTnPN-101" value="" style="edgeStyle=orthogonalEdgeStyle;html=1;endArrow=none;elbow=vertical;startArrow=block;startFill=1;strokeColor=#545B64;rounded=0;" edge="1" parent="1" source="Bh1ixdrLbkdcDXFbTnPN-82" target="Bh1ixdrLbkdcDXFbTnPN-84">
          <mxGeometry width="100" relative="1" as="geometry">
            <mxPoint x="-25" y="615.69" as="sourcePoint" />
            <mxPoint x="75" y="615.69" as="targetPoint" />
          </mxGeometry>
        </mxCell>
        <mxCell id="Bh1ixdrLbkdcDXFbTnPN-112" value="Update status (venda efetivada)" style="edgeLabel;html=1;align=center;verticalAlign=middle;resizable=0;points=[];fontSize=9;labelBackgroundColor=none;fontColor=#090909;" vertex="1" connectable="0" parent="Bh1ixdrLbkdcDXFbTnPN-101">
          <mxGeometry x="0.3385" relative="1" as="geometry">
            <mxPoint x="-16" y="4" as="offset" />
          </mxGeometry>
        </mxCell>
        <mxCell id="Bh1ixdrLbkdcDXFbTnPN-105" value="SQS" style="edgeLabel;html=1;align=center;verticalAlign=middle;resizable=0;points=[];labelBackgroundColor=none;fontColor=#090909;fontSize=9;" vertex="1" connectable="0" parent="1">
          <mxGeometry x="-310" y="650" as="geometry" />
        </mxCell>
        <mxCell id="Bh1ixdrLbkdcDXFbTnPN-106" value="Trigger (MessageEvent)" style="edgeLabel;html=1;align=center;verticalAlign=middle;resizable=0;points=[];labelBackgroundColor=none;fontColor=#090909;fontSize=9;" vertex="1" connectable="0" parent="1">
          <mxGeometry x="-350" y="680" as="geometry">
            <mxPoint x="-23" y="-12" as="offset" />
          </mxGeometry>
        </mxCell>
        <mxCell id="Bh1ixdrLbkdcDXFbTnPN-117" value="CloudWatch" style="sketch=0;points=[[0,0,0],[0.25,0,0],[0.5,0,0],[0.75,0,0],[1,0,0],[0,1,0],[0.25,1,0],[0.5,1,0],[0.75,1,0],[1,1,0],[0,0.25,0],[0,0.5,0],[0,0.75,0],[1,0.25,0],[1,0.5,0],[1,0.75,0]];points=[[0,0,0],[0.25,0,0],[0.5,0,0],[0.75,0,0],[1,0,0],[0,1,0],[0.25,1,0],[0.5,1,0],[0.75,1,0],[1,1,0],[0,0.25,0],[0,0.5,0],[0,0.75,0],[1,0.25,0],[1,0.5,0],[1,0.75,0]];outlineConnect=0;fontColor=#232F3E;fillColor=#E7157B;strokeColor=#ffffff;dashed=0;verticalLabelPosition=bottom;verticalAlign=top;align=center;html=1;fontSize=12;fontStyle=0;aspect=fixed;shape=mxgraph.aws4.resourceIcon;resIcon=mxgraph.aws4.cloudwatch_2;" vertex="1" parent="1">
          <mxGeometry x="-230" y="790" width="50" height="50" as="geometry" />
        </mxCell>
        <mxCell id="Bh1ixdrLbkdcDXFbTnPN-119" value="" style="endArrow=none;dashed=1;html=1;rounded=0;exitX=0;exitY=0.5;exitDx=0;exitDy=0;exitPerimeter=0;strokeColor=#808080;" edge="1" parent="1" source="Bh1ixdrLbkdcDXFbTnPN-117" target="Bh1ixdrLbkdcDXFbTnPN-79">
          <mxGeometry width="50" height="50" relative="1" as="geometry">
            <mxPoint x="-100" y="870" as="sourcePoint" />
            <mxPoint x="-50" y="820" as="targetPoint" />
            <Array as="points">
              <mxPoint x="-325" y="815" />
            </Array>
          </mxGeometry>
        </mxCell>
        <mxCell id="Bh1ixdrLbkdcDXFbTnPN-123" value="Logs / Métricas" style="edgeLabel;html=1;align=center;verticalAlign=middle;resizable=0;points=[];labelBackgroundColor=none;fontColor=#090909;fontSize=9;" vertex="1" connectable="0" parent="Bh1ixdrLbkdcDXFbTnPN-119">
          <mxGeometry x="-0.1955" y="1" relative="1" as="geometry">
            <mxPoint x="7" y="4" as="offset" />
          </mxGeometry>
        </mxCell>
        <mxCell id="Bh1ixdrLbkdcDXFbTnPN-120" value="" style="endArrow=none;dashed=1;html=1;rounded=0;strokeColor=#808080;exitX=1;exitY=0.5;exitDx=0;exitDy=0;exitPerimeter=0;" edge="1" parent="1" source="Bh1ixdrLbkdcDXFbTnPN-117" target="Bh1ixdrLbkdcDXFbTnPN-80">
          <mxGeometry width="50" height="50" relative="1" as="geometry">
            <mxPoint x="-47.5" y="857" as="sourcePoint" />
            <mxPoint x="-132.5" y="773" as="targetPoint" />
            <Array as="points">
              <mxPoint x="-130" y="815" />
            </Array>
          </mxGeometry>
        </mxCell>
        <mxCell id="Bh1ixdrLbkdcDXFbTnPN-121" value="" style="endArrow=none;dashed=1;html=1;rounded=0;strokeColor=#808080;exitX=1;exitY=0.5;exitDx=0;exitDy=0;exitPerimeter=0;entryX=0.5;entryY=1;entryDx=0;entryDy=0;entryPerimeter=0;" edge="1" parent="1" source="Bh1ixdrLbkdcDXFbTnPN-117" target="Bh1ixdrLbkdcDXFbTnPN-83">
          <mxGeometry width="50" height="50" relative="1" as="geometry">
            <mxPoint x="-180" y="825" as="sourcePoint" />
            <mxPoint x="-120" y="741" as="targetPoint" />
            <Array as="points">
              <mxPoint x="5" y="815" />
            </Array>
          </mxGeometry>
        </mxCell>
        <mxCell id="Bh1ixdrLbkdcDXFbTnPN-122" value="" style="endArrow=none;dashed=1;html=1;rounded=0;strokeColor=#808080;" edge="1" parent="1" source="Bh1ixdrLbkdcDXFbTnPN-117" target="Bh1ixdrLbkdcDXFbTnPN-81">
          <mxGeometry width="50" height="50" relative="1" as="geometry">
            <mxPoint x="-170" y="825" as="sourcePoint" />
            <mxPoint x="15" y="741" as="targetPoint" />
            <Array as="points">
              <mxPoint x="175" y="815" />
            </Array>
          </mxGeometry>
        </mxCell>
        <mxCell id="Bh1ixdrLbkdcDXFbTnPN-124" value="Logs / Métricas" style="edgeLabel;html=1;align=center;verticalAlign=middle;resizable=0;points=[];labelBackgroundColor=none;fontColor=#090909;fontSize=9;" vertex="1" connectable="0" parent="1">
          <mxGeometry x="-90" y="810" as="geometry" />
        </mxCell>
        <mxCell id="Bh1ixdrLbkdcDXFbTnPN-125" value="Logs / Healthcheck" style="edgeLabel;html=1;align=center;verticalAlign=middle;resizable=0;points=[];labelBackgroundColor=none;fontColor=#090909;fontSize=9;" vertex="1" connectable="0" parent="1">
          <mxGeometry x="45" y="810" as="geometry" />
        </mxCell>
        <mxCell id="Bh1ixdrLbkdcDXFbTnPN-127" value="" style="endArrow=none;dashed=1;html=1;rounded=0;strokeColor=#808080;" edge="1" parent="1" source="Bh1ixdrLbkdcDXFbTnPN-117" target="Bh1ixdrLbkdcDXFbTnPN-78">
          <mxGeometry width="50" height="50" relative="1" as="geometry">
            <mxPoint x="-260" y="650" as="sourcePoint" />
            <mxPoint x="-210" y="600" as="targetPoint" />
          </mxGeometry>
        </mxCell>
        <mxCell id="Bh1ixdrLbkdcDXFbTnPN-129" value="Alarme de mensagens" style="edgeLabel;html=1;align=center;verticalAlign=middle;resizable=0;points=[];labelBackgroundColor=none;fontColor=#090909;fontSize=9;" vertex="1" connectable="0" parent="1">
          <mxGeometry x="-250" y="770" as="geometry" />
        </mxCell>
        <mxCell id="Bh1ixdrLbkdcDXFbTnPN-131" value="Amazon RDS - Notificações" style="sketch=0;points=[[0,0,0],[0.25,0,0],[0.5,0,0],[0.75,0,0],[1,0,0],[0,1,0],[0.25,1,0],[0.5,1,0],[0.75,1,0],[1,1,0],[0,0.25,0],[0,0.5,0],[0,0.75,0],[1,0.25,0],[1,0.5,0],[1,0.75,0]];outlineConnect=0;fontColor=#232F3E;fillColor=#C925D1;strokeColor=#ffffff;dashed=0;verticalLabelPosition=bottom;verticalAlign=top;align=center;html=1;fontSize=9;fontStyle=0;aspect=fixed;shape=mxgraph.aws4.resourceIcon;resIcon=mxgraph.aws4.rds;" vertex="1" parent="1">
          <mxGeometry x="240" y="820" width="50" height="50" as="geometry" />
        </mxCell>
        <mxCell id="Bh1ixdrLbkdcDXFbTnPN-132" value="" style="edgeStyle=orthogonalEdgeStyle;html=1;endArrow=openThin;elbow=vertical;startArrow=openThin;startFill=0;endFill=0;strokeColor=#545B64;rounded=0;exitX=1;exitY=0.75;exitDx=0;exitDy=0;exitPerimeter=0;" edge="1" parent="1" source="Bh1ixdrLbkdcDXFbTnPN-81" target="Bh1ixdrLbkdcDXFbTnPN-131">
          <mxGeometry width="100" relative="1" as="geometry">
            <mxPoint x="145" y="855" as="sourcePoint" />
            <mxPoint x="230" y="855.5" as="targetPoint" />
          </mxGeometry>
        </mxCell>
        <mxCell id="Bh1ixdrLbkdcDXFbTnPN-133" value="&lt;span style=&quot;font-size: 9px;&quot;&gt;JDBC + SSL&lt;/span&gt;" style="edgeLabel;html=1;align=center;verticalAlign=middle;resizable=0;points=[];labelBackgroundColor=none;fontColor=#090909;" vertex="1" connectable="0" parent="Bh1ixdrLbkdcDXFbTnPN-132">
          <mxGeometry x="-0.0169" y="-1" relative="1" as="geometry">
            <mxPoint x="-24" y="65" as="offset" />
          </mxGeometry>
        </mxCell>
        <mxCell id="Bh1ixdrLbkdcDXFbTnPN-134" value="" style="endArrow=none;dashed=1;html=1;rounded=0;strokeColor=#808080;entryX=1;entryY=1;entryDx=0;entryDy=0;entryPerimeter=0;" edge="1" parent="1" source="Bh1ixdrLbkdcDXFbTnPN-8" target="Bh1ixdrLbkdcDXFbTnPN-81">
          <mxGeometry width="50" height="50" relative="1" as="geometry">
            <mxPoint x="-248.267716535433" y="497" as="sourcePoint" />
            <mxPoint x="210" y="853" as="targetPoint" />
            <Array as="points">
              <mxPoint x="-240" y="500" />
              <mxPoint x="-450" y="500" />
              <mxPoint x="-450" y="860" />
              <mxPoint x="200" y="860" />
            </Array>
          </mxGeometry>
        </mxCell>
        <mxCell id="Bh1ixdrLbkdcDXFbTnPN-135" value="GET /venda/status (opcional)" style="edgeLabel;html=1;align=center;verticalAlign=middle;resizable=0;points=[];labelBackgroundColor=none;fontColor=#808080;" vertex="1" connectable="0" parent="Bh1ixdrLbkdcDXFbTnPN-134">
          <mxGeometry x="0.5659" y="3" relative="1" as="geometry">
            <mxPoint x="8" y="10" as="offset" />
          </mxGeometry>
        </mxCell>
        <mxCell id="Bh1ixdrLbkdcDXFbTnPN-136" style="edgeStyle=orthogonalEdgeStyle;rounded=0;orthogonalLoop=1;jettySize=auto;html=1;exitX=0.5;exitY=1;exitDx=0;exitDy=0;" edge="1" parent="1" source="Bh1ixdrLbkdcDXFbTnPN-32" target="Bh1ixdrLbkdcDXFbTnPN-32">
          <mxGeometry relative="1" as="geometry" />
        </mxCell>
      </root>
    </mxGraphModel>
  </diagram>
</mxfile>
